<?xml version="1.0" encoding="UTF-8" standalone="no"?>
<svg
   xmlns:dc="http://purl.org/dc/elements/1.1/"
   xmlns:cc="http://creativecommons.org/ns#"
   xmlns:rdf="http://www.w3.org/1999/02/22-rdf-syntax-ns#"
   xmlns:svg="http://www.w3.org/2000/svg"
   xmlns="http://www.w3.org/2000/svg"
   xmlns:sodipodi="http://sodipodi.sourceforge.net/DTD/sodipodi-0.dtd"
   xmlns:inkscape="http://www.inkscape.org/namespaces/inkscape"
   inkscape:export-ydpi="96"
   inkscape:export-xdpi="96"
   inkscape:export-filename="C:\Users\jooao\Documents\Projeto-NAVI\projeto-navi\src\images\rocket 1.png"
   inkscape:version="1.0 (4035a4fb49, 2020-05-01)"
   sodipodi:docname="rocket 1.svg"
   id="svg13"
   version="1.1"
   fill="none"
   viewBox="0 0 96 96"
   height="96"
   width="96">
  <metadata
     id="metadata17">
    <rdf:RDF>
      <cc:Work
         rdf:about="">
        <dc:format>image/svg+xml</dc:format>
        <dc:type
           rdf:resource="http://purl.org/dc/dcmitype/StillImage" />
      </cc:Work>
    </rdf:RDF>
  </metadata>
  <sodipodi:namedview
     inkscape:current-layer="svg13"
     inkscape:window-maximized="1"
     inkscape:window-y="-8"
     inkscape:window-x="-8"
     inkscape:cy="47.267708"
     inkscape:cx="30.422253"
     inkscape:zoom="3.9627443"
     showgrid="false"
     id="namedview15"
     inkscape:window-height="705"
     inkscape:window-width="1366"
     inkscape:pageshadow="2"
     inkscape:pageopacity="0"
     guidetolerance="10"
     gridtolerance="10"
     objecttolerance="10"
     borderopacity="1"
     bordercolor="#666666"
     pagecolor="#ffffff" />
  <g
     id="g6"
     clip-path="url(#clip0)">
    <path
       id="path2"
       stroke-width="1.00014"
       stroke="#1F0A57"
       fill="#3C9AE4"
       d="M39.418 23.6149L39.4181 23.6149L39.424 23.6088C53.5956 8.94625 73.1901 0.530411 93.1823 0.511974L95.4839 0.50983C95.4827 0.747589 95.4855 1.03843 95.4886 1.37964C95.5284 5.65246 95.6415 17.8231 89.1309 32.5475C85.161 41.5266 79.3684 49.8328 72.3816 56.5672L72.3816 56.5671L72.3751 56.5736L67.3034 61.6453L66.9498 61.9989L67.3034 62.3525L72.5024 67.5511L68.1096 83.0474L55.873 95.2835L44.5486 83.9591L44.297 83.7075L43.9769 83.8627L33.5214 88.9307L30.3301 85.7393L29.9765 85.3857L29.6229 85.7393L21.5553 93.8069L18.2845 90.5361L26.3521 82.4685L26.7057 82.1149L26.3521 81.7613L22.2796 77.6887L21.926 77.3351L21.5724 77.6887L4.09296 95.168L0.822167 91.8972L18.3016 74.4181L18.6552 74.0646L18.3016 73.7109L14.2291 69.638L13.8755 69.2844L13.5219 69.638L5.45459 77.7053L2.18379 74.4345L10.2511 66.367L10.6047 66.0134L10.2511 65.6598L7.05985 62.4686L12.1278 52.0135L12.2831 51.6933L12.0314 51.4417L11.8155 51.2258L11.8156 51.2257L11.4574 50.8675L0.707205 40.1169L12.9447 27.8796L28.4542 23.5019L33.639 28.6867L33.9926 29.0403L34.3462 28.6867L39.418 23.6149ZM15.4878 31.9681L15.3622 32.0035L15.27 32.0957L7.60222 39.7633L7.24862 40.1169L7.6022 40.4705L14.728 47.5969L15.0816 47.9505L15.4353 47.5969L30.3678 32.6646L30.7214 32.3109L30.3678 31.9573L27.3079 28.8976L27.1006 28.6904L26.8185 28.77L15.4878 31.9681ZM34.2136 83.0813L34.4651 83.3329L34.7853 83.1777L40.2024 80.5519L40.8349 80.2454L40.3379 79.7483L16.2422 55.6528L15.7452 55.1559L15.4386 55.7883L12.8128 61.2048L12.6576 61.525L12.9092 61.7766L34.2136 83.0813ZM67.2314 69.1847L67.3115 68.9023L67.1039 68.6947L64.0324 65.6238L63.6788 65.2703L63.3252 65.6238L48.3934 80.5556L48.0398 80.9093L48.3934 81.2629L55.5194 88.3887L55.873 88.7423L56.2266 88.3887L63.8957 80.72L63.9877 80.628L64.0232 80.5027L67.2314 69.1847ZM37.7136 31.861L37.7134 31.8612L37.7099 31.8646L37.6937 31.8808L37.6639 31.9106L37.6305 31.944L37.6201 31.9544L37.6176 31.957L37.6175 31.957L37.6172 31.9573L37.617 31.9575C35.7879 33.7867 20.602 48.9724 18.7064 50.8677L18.3528 51.2213L18.7064 51.5749L44.4158 77.2839L44.7694 77.6375L45.123 77.2839L63.6774 58.7293L63.678 58.7298L64.0328 58.375L69.1537 53.2541C69.1548 53.253 69.1559 53.2519 69.1571 53.2508C82.2281 40.6595 90.0225 23.4797 90.8063 5.72483L90.8304 5.17906L90.2846 5.20319C72.5422 5.98768 55.3542 13.7765 42.7375 26.8365L37.7252 31.8493L37.7181 31.8565L37.7151 31.8595L37.7145 31.86L37.7136 31.861Z" />
  </g>
  <defs
     id="defs11">
    <clipPath
       id="clip0">
      <rect
         id="rect8"
         fill="white"
         height="96"
         width="96" />
    </clipPath>
  </defs>
  <circle
     r="11.048319"
     cy="31.184074"
     cx="64.475525"
     id="path19"
     style="opacity:0.98;fill:none;stroke:#3c9ae4;stroke-width:3;stroke-linecap:round;stroke-linejoin:round;stroke-miterlimit:4;stroke-dasharray:none;stroke-opacity:1" />
</svg>
